<svg width="320" height="96" viewBox="0 0 320 96" xmlns="http://www.w3.org/2000/svg" role="img" aria-label="Viridian Core">
  <defs>
    <linearGradient id="g1" x1="0%" y1="0%" x2="100%" y2="0%">
      <stop offset="0%" stop-color="#b3ff7b"/>
      <stop offset="40%" stop-color="#4eda9e"/>
      <stop offset="100%" stop-color="#1c7a4f"/>
    </linearGradient>
    <linearGradient id="g2" x1="0%" y1="0%" x2="100%" y2="100%">
      <stop offset="0%" stop-color="#86f093"/>
      <stop offset="100%" stop-color="#0f3827"/>
    </linearGradient>
  </defs>
  <rect fill="none" width="100%" height="100%"/>
  <!-- Stylized eagle head -->
  <g transform="translate(8,4) scale(0.95)">
    <path fill="url(#g1)" d="M0 34c22-16 55-30 94-32 18-1 32 2 43 9 11 8 25 12 43 14-12 7-28 9-48 8-6 0-11 1-15 4-10 7-12 16-7 29-16-4-29-13-37-29C58 26 44 22 26 23 15 23 6 27 0 34Z"/>
    <path fill="url(#g2)" d="M141 25c24 6 42 2 57-11-11 0-21-3-29-8-16-10-38-14-67-11 28 8 40 18 39 30Z" opacity="0.9"/>
    <path fill="#0f1f1a" d="M80 38c9-10 22-13 36-10-8 2-14 6-16 12-4-3-10-4-20-2Z"/>
    <circle cx="100" cy="33" r="3.6" fill="#f4fffb"/>
    <circle cx="101.4" cy="33" r="1.8" fill="#0f1f1a"/>
    <path fill="#4eda9e" d="M152 32c28 2 51-6 70-24-8 2-18 1-28-3 6 10-6 19-42 27Z" opacity="0.7"/>
  </g>
  <!-- Wordmark -->
  <g transform="translate(122,66)" fill="#e7f5ef" font-family="Inter, 'Helvetica Neue', Arial, sans-serif" font-weight="700">
    <text font-size="34" letter-spacing="2">VIRIDIAN</text>
  </g>
  <g transform="translate(182,90)" fill="url(#g1)" font-family="Inter, 'Helvetica Neue', Arial, sans-serif" font-weight="700">
    <text font-size="16" letter-spacing="4">CORE</text>
  </g>
</svg>
